<?xml version="1.0" standalone="no"?>
<!DOCTYPE svg PUBLIC "-//W3C//DTD SVG 1.1//EN" "http://www.w3.org/Graphics/SVG/1.1/DTD/svg11.dtd" >
<svg xmlns="http://www.w3.org/2000/svg">
<metadata>
Created by FontForge 20120731 at Mon May  8 10:20:09 2017
 By admin
</metadata>
<defs>
<font id="iconfont" horiz-adv-x="1024" >
  <font-face 
    font-family="iconfont"
    font-weight="500"
    font-stretch="normal"
    units-per-em="1024"
    panose-1="2 0 6 3 0 0 0 0 0 0"
    ascent="896"
    descent="-128"
    x-height="792"
    bbox="-4 -212 1329 898"
    underline-thickness="0"
    underline-position="0"
    unicode-range="U+0078-EEE3"
  />
<missing-glyph 
 />
    <glyph glyph-name=".notdef" 
 />
    <glyph glyph-name=".notdef" 
 />
    <glyph glyph-name=".null" horiz-adv-x="0" 
 />
    <glyph glyph-name="nonmarkingreturn" horiz-adv-x="341" 
 />
    <glyph glyph-name="x" unicode="x" horiz-adv-x="1001" 
d="M281 543q-27 -1 -53 -1h-83q-18 0 -36.5 -6t-32.5 -18.5t-23 -32t-9 -45.5v-76h912v41q0 16 -0.5 30t-0.5 18q0 13 -5 29t-17 29.5t-31.5 22.5t-49.5 9h-133v-97h-438v97zM955 310v-52q0 -23 0.5 -52t0.5 -58t-10.5 -47.5t-26 -30t-33 -16t-31.5 -4.5q-14 -1 -29.5 -0.5
t-29.5 0.5h-32l-45 128h-439l-44 -128h-29h-34q-20 0 -45 1q-25 0 -41 9.5t-25.5 23t-13.5 29.5t-4 30v167h911zM163 247q-12 0 -21 -8.5t-9 -21.5t9 -21.5t21 -8.5q13 0 22 8.5t9 21.5t-9 21.5t-22 8.5zM316 123q-8 -26 -14 -48q-5 -19 -10.5 -37t-7.5 -25t-3 -15t1 -14.5
t9.5 -10.5t21.5 -4h37h67h81h80h64h36q23 0 34 12t2 38q-5 13 -9.5 30.5t-9.5 34.5q-5 19 -11 39h-368zM336 498v228q0 11 2.5 23t10 21.5t20.5 15.5t34 6h188q31 0 51.5 -14.5t20.5 -52.5v-227h-327z" />
    <glyph glyph-name="moban" unicode="&#xe644;" 
d="M64 748v-256h384v256h-384zM384 556h-256v128h256v-128zM64 428v-192h384v192h-384zM384 300h-256v64h256v-64zM512 748v-512h448v512h-448zM896 300h-320v384h320v-384zM64 172v-320h896v320h-896zM896 -84h-768v192h768v-192z" />
    <glyph glyph-name="error" unicode="&#xe6da;" 
d="M512 800q-136 0 -251 -67t-182 -182t-67 -251t67 -251t182 -182t251 -67t251 67t182 182t67 251t-67 251t-182 182t-251 67zM568 50q0 -12 -8.5 -20t-19.5 -8h-56q-11 0 -19.5 8t-8.5 20v56q0 11 8.5 19t19.5 8h56q11 0 19.5 -8t8.5 -19v-56zM568 217q0 -12 -8.5 -20
t-19.5 -8h-56q-11 0 -19.5 8t-8.5 20l-55 222q0 60 24 97q14 21 37.5 31.5t47.5 10.5q57 0 86 -41q15 -20 21 -51.5t6 -46.5z" />
    <glyph glyph-name="search" unicode="&#xe674;" 
d="M443.5 137q-69.5 0 -132.5 27q-62 26 -109.5 73.5t-73.5 108.5q-26 64 -26 133.5t26 133.5q26 61 73.5 108.5t109.5 73.5q63 27 132.5 27t133.5 -27q62 -26 109 -73.5t73 -108.5q27 -64 27 -133.5t-27 -133.5q-26 -61 -73 -108.5t-109 -73.5q-64 -27 -133.5 -27zM444 772
q-121 0 -207 -86t-86 -207t86 -206.5t207 -85.5t206.5 85.5t85.5 206.5t-85.5 207t-206.5 86zM867 -22q-32 0 -55 23l-147 143l34 36l148 -144q8 -8 20 -8t20 8.5t8 20t-8 19.5h-1l-143 148l36 35l143 -148q23 -23 23 -55t-23 -55t-55 -23zM295 331q-61 61 -61 148t61 149
l36 -35q-47 -47 -47 -113.5t47 -113.5z" />
    <glyph glyph-name="qingdan" unicode="&#xe6c3;" 
d="M778 -146h-528q-43 0 -74 31t-31 74v633q0 44 31 75t74 31h53v26q0 11 8 18.5t18 7.5h370q11 0 18.5 -7.5t7.5 -18.5v-26h53q43 0 74 -31t31 -75v-633q0 -43 -31 -74t-74 -31v0zM830 592q0 22 -15 37.5t-37 15.5h-79h-370h-79q-21 0 -36.5 -15.5t-15.5 -37.5v-633
q0 -22 15.5 -37t36.5 -15h528q22 0 37 15t15 37v633v0zM303 65h422v-53h-422v53v0zM303 223h422v-53h-422v53v0zM303 381h422v-53h-422v53v0zM303 539h422v-52h-422v52v0zM303 539z" />
    <glyph glyph-name="guanbi" unicode="&#xe60b;" 
d="M512 -212q-122 0 -225 60t-163 163t-60 225q0 132 70.5 240t185.5 162v-147q-59 -45 -93.5 -111.5t-34.5 -143.5q0 -133 93.5 -226.5t226.5 -93.5t226.5 93.5t93.5 226.5q0 77 -34.5 143.5t-93.5 111.5v147q115 -55 185.5 -163t70.5 -239q0 -91 -35.5 -174t-95.5 -143
t-143 -95.5t-174 -35.5zM576 364q0 -26 -19 -45t-45 -19q-27 0 -45.5 18.5t-18.5 45.5v384q0 26 19 45t45 19t45 -19t19 -45v-384z" />
    <glyph glyph-name="xinzeng" unicode="&#xe618;" 
d="M501 330zM512 671q74 0 140 -28t115 -77t77.5 -115t28.5 -141t-28.5 -140.5t-77.5 -114.5t-115 -77.5t-140 -28.5q-76 0 -141.5 28.5t-115 77.5t-77.5 114.5t-28 140.5t28 140.5t77.5 115t115 77.5t141.5 28v0zM718 260q21 0 36 15.5t15 36.5t-15 36t-36 15h-154v154
q0 21 -15 36t-36.5 15t-36 -15t-14.5 -36v-154h-154q-21 0 -36 -15t-15 -36t15 -36.5t36 -15.5h154v-153q0 -21 14.5 -36t36 -15t36.5 15t15 36v153h154v0zM718 260z" />
    <glyph glyph-name="suoding" unicode="&#xe610;" 
d="M738 352v134q0 93 -65 158t-158 65h-1.5h-2.5h-2.5h-1.5q-92 0 -157.5 -65t-65.5 -158v-134h-79v-462h614v462h-81zM582 -25h-140l35 149q-35 21 -35 60q0 29 20.5 49.5t49.5 20.5t49.5 -20.5t20.5 -49.5q0 -39 -35 -60zM627 352h-231v134q0 46 32.5 79t78.5 33h5h3
q46 0 79 -33t33 -79v-134z" />
    <glyph glyph-name="suoding1" unicode="&#xe611;" 
d="M673 714l-36 -37v-58l-111 -111l-163 41l-67 -68l-29 -28l191 -191l-273 -273h1l-99 -99l36 -36l99 99v1l272 272l190 -190l36 36v0l59 59v1v0l-40 162l111 112l59 -1l36 36zM830 457l-147 -147v0v0v0v0l39 -163l-38 -38l-345 344l39 38l164 -40v1l146 146v0h1l-1 28
l169 -169h-27z" />
    <glyph glyph-name="xinzeng1" unicode="&#xe625;" 
d="M739 330h-188v207q0 22 -34 24q-16 1 -24.5 -6t-8.5 -18v-207h-199q-1 0 -4.5 0.5t-9 -1t-11 -4t-9.5 -8.5t-4 -14q0 -15 2.5 -24t7.5 -12.5t9 -4t11 -0.5h207l-1 -217v-6t0.5 -6t0.5 -5.5t1 -6t2.5 -5t4 -5t5.5 -3t7.5 -2t10.5 -0.5q35 0 35 42l1 214h189q42 0 42 36
q0 16 -10.5 24.5t-21.5 7.5h-11zM518.5 770q-97.5 0 -186.5 -38t-153 -102.5t-102 -153t-38 -186.5t38 -186.5t102 -153t153 -102.5t186.5 -38t186.5 38t153.5 102t102.5 153t38 187t-38 186.5t-102.5 153t-153.5 102.5t-186.5 38zM519 -126q-113 0 -209 55.5t-151.5 151.5
t-55.5 209t55.5 209t151.5 151.5t209 55.5t208.5 -55.5t151.5 -151.5t56 -209t-56 -209t-151.5 -151.5t-208.5 -55.5z" />
    <glyph glyph-name="iconfont04" unicode="&#xe602;" 
d="M871 29q-26 74 -80.5 131t-126.5 87q39 33 61.5 80t22.5 100q0 98 -69 167t-167 69t-167 -69t-69 -167q0 -53 22.5 -100t61.5 -80q-72 -30 -126.5 -87t-80.5 -131q-12 -34 8 -63q21 -29 56 -29q8 0 13 5t5 12.5t-5 13t-13 5.5q-16 0 -26 13q-10 15 -4 31q26 72 81.5 126
t127.5 78q54 -30 116 -30t116 30q72 -24 127.5 -78t81.5 -126q6 -16 -4 -31q-10 -13 -26 -13q-8 0 -13 -5.5t-5 -13t5 -12.5t13 -5q35 0 56 29q20 29 8 63zM512 227q-83 0 -141.5 59t-58.5 141.5t58.5 141t141.5 58.5t141.5 -58.5t58.5 -141t-58.5 -141.5t-141.5 -59z" />
    <glyph glyph-name="icon19" unicode="&#xe692;" 
d="M306.5 576q14.5 0 24.5 10t10 24v103q0 15 -10 25t-24.5 10t-24.5 -10t-10 -25v-103q0 -14 10 -24t24.5 -10zM858 679h-69v-69q0 -29 -20.5 -49t-49 -20t-48.5 20t-20 49v69h-276v-69q0 -29 -20 -49t-48.5 -20t-48.5 20t-20 49v69h-69q-43 0 -73.5 -30.5t-30.5 -72.5
v-620q0 -43 30.5 -73.5t73.5 -30.5h689q42 0 72.5 30.5t30.5 73.5v620q0 42 -30.5 72.5t-72.5 30.5zM892 -44q0 -15 -10 -25t-24 -10h-689q-15 0 -25 10t-10 25v482h758v-482zM720 576q14 0 24 10t10 24v103q0 15 -10 25t-24 10t-24.5 -10t-10.5 -25v-103q0 -14 10.5 -24
t24.5 -10zM460 9q12 -12 27 -12t25 15l204 301q5 7 3.5 15.5t-8.5 13.5l-35 23q-7 5 -15.5 3.5t-13.5 -8.5l-169 -250l-78 78q-6 6 -15 6t-15 -6l-29 -30q-6 -6 -6 -14.5t6 -14.5z" />
    <glyph glyph-name="kuaidi" unicode="&#xe605;" 
d="M565 592l-21 13h-445q-7 -4 -17 -12q-5 -4 -8.5 -9t-4.5 -8l-1 -3v-349h508v347q0 1 -1.5 4.5t-4 9t-5.5 7.5zM393 433q-97 -133 -107 -146q-13 -17 -14.5 -16.5t4.5 21.5q1 2 1 3l27 94h-50q-10 1 -5 8q0 1 28 38.5l56 75l28 37.5q7 9 8 9t-2 -11l-24 -101h50
q3 -2 3 -4.5t-1 -5.5zM912 442q-20 24 -40.5 41t-31.5 22l-11 4h-222v-448h35q-3 13 -3 26q0 59 42 101t100.5 42t100.5 -42t42 -101q0 -13 -3 -26h35v283q-12 61 -44 98zM912 350h-211v135h128q40 -38 58 -65q7 -11 12.5 -22.5t8 -19.5t3.5 -15t1 -10v-3zM378 98
q0 -15 -4 -30h202v124h-241q43 -37 43 -94zM173 192h-105v-124h66q-4 15 -4 30q0 57 43 94zM254 193q-41 0 -69.5 -29t-28.5 -69.5t28.5 -69.5t69.5 -29t69.5 29t28.5 69.5t-28.5 69.5t-69.5 29zM254 27q-28 0 -48 19.5t-20 47.5t20 48t48 20t48 -20t20 -48t-20 -47.5
t-48 -19.5zM781.5 194q-40.5 0 -69.5 -29t-29 -69.5t29 -69.5t69.5 -29t69.5 29t29 69.5t-29 69.5t-69.5 29zM781.5 28q-27.5 0 -47.5 20t-20 48t20 47.5t47.5 19.5t47.5 -19.5t20 -47.5t-20 -48t-47.5 -20z" />
    <glyph glyph-name="weibiaoti2" unicode="&#xe619;" 
d="M425 206l259 260q55 -29 118.5 -19.5t109 55t55 109t-19.5 118.5l-169 -169l-85 85l169 169q-54 28 -117.5 18.5t-109 -55t-55 -109t18.5 -117.5l-259 -260q-55 29 -118.5 19.5t-109 -55t-55 -109t19.5 -117.5l169 168l85 -85l-169 -168q54 -29 117.5 -19.5t109 55
t55 109t-18.5 117.5z" />
    <glyph glyph-name="shezhi" unicode="&#xe63d;" 
d="M511.5 564q-74.5 0 -127 -52.5t-52.5 -126.5t52.5 -126.5t127 -52.5t127 52.5t52.5 126.5t-52.5 126.5t-127 52.5zM511.5 250q-55.5 0 -95 39.5t-39.5 95t39.5 95t95 39.5t95 -39.5t39.5 -95t-39.5 -95t-95 -39.5zM960 295v179l-130 22q-6 19 -15 35l77 107l-127 127
l-107 -77q-16 9 -35 15l-22 130h-179l-22 -130q-14 -4 -35 -15l-107 76l-126 -126l76 -107q-9 -17 -15 -35l-130 -22v-179l130 -21q7 -21 16 -37l-77 -106l127 -127l107 76q20 -9 34 -13l22 -130h179l22 130q20 6 36 15l107 -77l127 127l-77 107q10 20 14 35zM787 286
q-4 -11 -11 -27q-12 -24 4 -46l54 -77l-73 -73l-76 55q-11 9 -26 9q-11 0 -21 -6q-13 -7 -29 -12q-26 -8 -30 -35l-16 -93h-103l-15 93q-5 28 -32 36q-11 3 -28 11q-9 4 -19 4q-14 0 -26 -8l-76 -55l-73 73l54 76q16 23 3 47q-7 12 -12 29q-8 26 -35 31l-93 15v103l93 16
q27 4 35 31q5 14 11 28q13 24 -3 46l-54 76l73 72l76 -53q11 -9 26 -9q10 0 20 5q17 9 28 12q27 8 32 36l15 92h103l16 -92q4 -28 31 -36q14 -4 26 -11q10 -6 22 -6q15 0 26 9l77 55l73 -73l-55 -76q-17 -24 -3 -49q7 -11 11 -26q8 -27 36 -31l92 -16v-103l-92 -15
q-28 -5 -36 -32z" />
    <glyph glyph-name="shangyi" unicode="&#xe633;" 
d="M696 439v-428h57v428h143l-172 171l-171 -171h143zM125 648h86v-57h-86v57zM239 648h86v-57h-86v57zM353 648h58v-86h-58v86zM125 448h57v-85h-57v85zM211 420h85v-57h-85v57zM325 420h86v-57h-86v57zM125 562h57v-85h-57v85zM353 534h58v-86h-58v86zM353 191v-171h-171
v171h171zM411 248h-286v-285h286v285z" />
    <glyph glyph-name="houdongfangiconfont10" unicode="&#xe649;" 
d="M765 -7q22 0 38 16t16 38q0 23 -16 38l-215 215l214 214q16 16 16 38t-16 38t-38 16q-23 0 -38 -16l-214 -214l-215 215q-16 16 -38 16t-38 -16t-16 -38q0 -23 16 -38l215 -215l-214 -213q-16 -16 -16 -38t16 -38t38 -16q23 0 38 16l214 213l215 -215q15 -16 38 -16z" />
    <glyph glyph-name="zhengque" unicode="&#xe601;" 
d="M926 458q-36 86 -102.5 152.5t-152.5 102.5q-90 38 -187.5 38t-186.5 -38q-86 -36 -152.5 -102.5t-103.5 -152.5q-37 -90 -37 -187.5t37 -186.5q37 -86 103.5 -152.5t152.5 -103.5q89 -37 186.5 -37t187.5 37q86 37 152.5 103.5t102.5 152.5q38 89 38 186.5t-38 187.5z
M483.5 -143q-112.5 0 -207.5 55.5t-150.5 150.5t-55.5 207.5t55.5 208t150.5 151t207.5 55.5t208 -55.5t151 -151t55.5 -208t-55.5 -207.5t-151 -150.5t-208 -55.5zM407 71q-13 0 -22 9l-125 123q-9 9 -9 22t9 22t22 9t22 -9l124 -124q9 -9 9.5 -21.5t-8.5 -21.5t-22 -9z
M415 63q-13 0 -22 9t-9 22t9 22l271 267q9 9 21.5 9t21.5 -9t9 -21.5t-9 -21.5l-271 -268q-9 -9 -21 -9z" />
    <glyph glyph-name="msnui-close" unicode="&#xe6d0;" 
d="M681 599l46 -46l-384 -384l-46 46zM343 599l384 -384l-46 -46l-384 384z" />
    <glyph glyph-name="store-set" unicode="&#xe608;" 
d="M573 753q7 -33 13 -79q42 -10 79 -32q34 26 65 46l86 -86q-20 -31 -46 -65q22 -37 32 -79q45 -6 79 -13v-122q-34 -7 -79 -13q-10 -41 -32 -79q24 -32 46 -65l-86 -86q-31 20 -65 46q-37 -22 -79 -32q-6 -47 -13 -79h-122q-7 35 -13 79q-42 10 -79 32q-36 -28 -65 -46
l-86 86q19 30 46 65q-22 37 -32 79q-44 6 -79 13v122q34 7 79 13q10 42 32 79q-27 35 -46 65l86 86q30 -19 65 -46q37 22 79 32q6 44 13 79h122v0zM573 806h-122q-19 0 -33.5 -12t-18.5 -30q-4 -21 -9 -49q-14 -5 -26 -11q-23 16 -41 28q-13 9 -29 9q-22 0 -37 -16l-86 -86
q-14 -13 -15.5 -31.5t8.5 -34.5q12 -19 28 -41q-6 -14 -11 -26q-28 -5 -49 -10q-18 -3 -30 -17.5t-12 -33.5v-122q0 -18 12 -33t30 -18q22 -5 49 -10q5 -13 11 -26q-16 -22 -28 -41q-11 -16 -9 -34.5t16 -31.5l86 -86q15 -16 37 -16q15 0 29 9q19 12 41 28q14 -6 26 -11
q5 -27 9 -49q4 -18 18.5 -30t33.5 -12h122q19 0 33.5 12t17.5 30q6 25 10 49q12 5 26 11q27 -19 41 -28q13 -9 29 -9q22 0 37 16l86 86q14 13 15.5 31.5t-8.5 34.5q-11 17 -28 41q6 13 11 27q22 3 49 9q18 3 30 17.5t12 33.5v122q0 19 -12 33.5t-30 18.5q-25 5 -49 9
q-6 14 -11 26q14 19 28 41q10 16 8 34.5t-15 31.5l-86 86q-15 16 -37 16q-16 0 -29 -9q-20 -13 -41 -28q-13 6 -26 11q-4 23 -10 49q-3 18 -17.5 30t-33.5 12v0zM512 542q-66 0 -112 -46t-46 -112t46 -112t112 -46t112 46t46 112t-46 112t-112 46zM512 279q-44 0 -74.5 30.5
t-30.5 74.5t30.5 74.5t74.5 30.5t74.5 -30.5t30.5 -74.5t-30.5 -74.5t-74.5 -30.5z" />
    <glyph glyph-name="iconfontxuqiudingzhi" unicode="&#xe61a;" 
d="M903 483l-482 -482l-14 15l14 -15l-330 -90v0l13 41l83 276l18 -11l-18 11l486 486q30 30 72 30t72 -30l86 -87q30 -29 30 -71.5t-30 -72.5v0zM151 -35l245 69l25 25l-172 173l-26 -26l-72 -241v0zM277 261l173 -173l338 338l-173 173l-338 -338v0zM866 607l-69 70
q-30 29 -52 29t-52 -29l-49 -50l173 -172l49 49q30 30 30 51.5t-30 51.5v0zM393 672q-30 29 -51.5 29t-51.5 -29l-165 -165l-28 29l172 173q30 30 72.5 30t71.5 -30l96 -95l-29 -29l-87 87v0zM197 493l58 57l29 -28l-58 -58l-3 3l32 -32l86 87l29 -29l-86 -87l9 -8l-29 -29
l-139 138l29 29l43 -43v0zM601 90l86 -87l43 -43l136 136q30 29 30 51t-30 52l-91 91l29 29l99 -100q30 -30 30 -72t-30 -72l-144 -144l-29 -29l-28 29l-143 143l29 29l13 -13v0zM716 147l-86 -86l-29 29l86 86l29 -29v0zM730 104l29 -29l-72 -72l-29 29l72 72v0z" />
    <glyph glyph-name="qizhisolid" unicode="&#xe615;" 
d="M667 655q-46 0 -99 12t-89 24.5t-97 37.5q-49 19 -94 19q-31 0 -59 -8.5t-46.5 -20.5t-32.5 -23.5t-20 -20.5l-7 -8v-799q0 -7 4.5 -11.5t11 -4.5t11 4.5t4.5 11.5v405q47 31 112 31q56 0 120 -23q161 -59 294 -59q43 0 81.5 6t63 14.5t42.5 17.5t26 15l8 6v450
q-115 -76 -234 -76z" />
    <glyph glyph-name="xiangqian" unicode="&#xe60c;" 
d="M807 328l-1 1.5l-1 1.5q-6 11 -8 13l-0.5 0.5l-1 1t-1 1.5t-1.5 1l-450 434q-18 17 -42 17q-27 0 -45 -19q-18 -18 -17.5 -43.5t19.5 -43.5l406 -391l-408 -385q-18 -18 -19 -43.5t16.5 -44t43 -19.5t44.5 17l454 429q15 14 18 34t-6 38z" />
    <glyph glyph-name="icondayinji" unicode="&#xe63e;" 
d="M935 -50h-141v-85q0 -11 -8.5 -19.5t-19.5 -8.5h-507q-12 0 -20 8.5t-8 19.5v85h-141q-11 0 -19.5 8t-8.5 20v507q0 11 8.5 19.5t19.5 8.5h141v197q0 11 8 19.5t20 8.5h507q11 0 19.5 -8.5t8.5 -19.5v-197h141q11 0 19.5 -8.5t8.5 -19.5v-507q0 -12 -8.5 -20t-19.5 -8z
M287 -107h451v226h-451v-226zM738 682h-451v-169h451v169zM907 456h-789v-450h113v141q0 11 8 19.5t20 8.5h507q11 0 19.5 -8.5t8.5 -19.5v-141h113v450zM738 344h112v-113h-112v113zM569 344h112v-113h-112v113z" />
    <glyph glyph-name="iconyichu01" unicode="&#xe62a;" 
d="M511 749q-91 0 -174 -35.5t-143.5 -95.5t-96 -143t-35.5 -174t35.5 -174t96 -143t143.5 -96t174 -36t174 36t143 96t95.5 143t35.5 174t-35.5 174t-95.5 143t-143 95.5t-174 35.5zM777 250h-538v102h538v-102z" />
    <glyph glyph-name="dayinshezhi" unicode="&#xe63f;" 
d="M915 591h-110v89q0 33 -16.5 57.5t-44.5 24.5h-441q-30 0 -57.5 -26t-27.5 -56v-89h-86q-30 0 -57.5 -26t-27.5 -56v-269q0 -29 26 -46.5t59 -17.5h86v-275q0 -28 26 -45.5t59 -17.5h441q61 0 61 63v275h110q30 0 46 16.5t16 47.5v269q0 32 -16.5 57t-45.5 25v0zM267 680
q0 10 13 22t23 12h441q12 0 12 -31v-3v-89h-489v89v0zM756 -89q0 -10 -7 -17.5t-17 -7.5h-441q-10 0 -17 7.5t-7 17.5v362q0 11 7 18t17 7h441q10 0 17 -7t7 -18v-362v0zM927 240v-4q0 -8 -1.5 -9.5t-10.5 -1.5h-110v39q0 33 -16.5 58t-44.5 25h-441q-30 0 -57.5 -26.5
t-27.5 -56.5v-39h-86q-36 0 -36 15v269q0 10 13 21.5t23 11.5h783q2 0 4 -0.5t3 -2l2 -3t1.5 -4t1 -4t0.5 -5v-5v-5v-4.5v-269v0zM685 190h-342q-10 0 -17.5 -7t-7.5 -17t7.5 -17t17.5 -7h342q10 0 17.5 6.5t7.5 17t-7.5 17.5t-17.5 7v0zM685 48h-342q-10 0 -17.5 -7
t-7.5 -17t7.5 -17.5t17.5 -7.5h342q10 0 17.5 7.5t7.5 17.5t-7.5 17t-17.5 7v0zM685 48z" />
    <glyph glyph-name="daifahuo" unicode="&#xe640;" horiz-adv-x="1026" 
d="M811 578h37q7 0 12 -6l162 -203q3 -4 3 -9v-249q0 -19 -13.5 -32.5t-32.5 -13.5h-56q-6 -43 -37.5 -72.5t-74.5 -32.5v29q35 3 59 29t24 61.5t-24 61.5t-59 29v30q43 -3 74.5 -33t36.5 -72h57q7 0 12 4q4 6 4 12v180h-184v30h184v34l-82 103h-102v30h79l-49 60h-30v30v0z
M333 733q28 -15 50 -37v0q11 -11 20 -23h165q25 0 42 -18v0q17 -17 17 -42v-35h184v-30h-184v-453h57q6 45 40 75t79 30h8v-30h-8q-37 0 -63.5 -26.5t-26.5 -64t26.5 -64t63.5 -26.5q5 0 8 1v-30h-8q-45 0 -79.5 30t-39.5 75h-300q-6 -53 -51 -84v40q22 25 22 58.5t-22 59.5
v39q44 -30 51 -83h214v518q0 12 -9 21v0q-9 9 -21 9h-146q27 -50 27 -106q0 -93 -66 -159q-22 -22 -50 -38v35q17 11 29 24q57 57 57 137.5t-57 138.5v0q-13 13 -29 24v34v0v0zM811 488h-34q-20 0 -34 -14t-14 -34v-101q0 -20 14 -34t33 -14h35v30h-35q-7 0 -12 5t-5 13v101
q0 7 5 12.5t13 5.5h34v30v0zM225 761q58 0 108 -28v-34q-49 33 -108 33q-19 0 -36 -4v31q18 2 36 2v0v0zM333 -19q-31 -22 -68 -22q-43 0 -76 28v43q27 -41 76 -41q41 0 68 32v-40v0zM333 375v-34q-50 -29 -108 -29q-18 0 -36 3v30q17 -3 36 -3q59 0 108 33v0v0zM333 178
v-39q-27 31 -68 31q-49 0 -76 -41v44q33 27 76 27q37 0 68 -22v0v0zM189 488v38l21 18v128q0 10 7.5 14t14.5 0t7 -14v-135q0 -7 -5 -12l-45 -37v0zM189 -13q-38 30 -44 78h-46q-25 0 -42.5 17.5t-17.5 42.5v285q-39 58 -39 127q0 93 66 159q52 51 123 63v-31
q-59 -10 -102 -53q-57 -58 -57 -138.5t57 -137.5v0q43 -43 102 -54v-30q-69 11 -120 60v-250q0 -13 8.5 -21.5t21.5 -8.5h46q6 47 44 78v-44q-15 -22 -15 -49t15 -50v-43v0v0zM189 526l-23 -19l-21 -18q-8 -6 -6 -14.5t9 -11t16 2.5l25 22v38v0zM189 526z" />
    <glyph glyph-name="yifahuo" unicode="&#xe641;" horiz-adv-x="1026" 
d="M811 578h37q7 0 12 -6l162 -203q3 -4 3 -9v-249q0 -19 -13.5 -32.5t-32.5 -13.5h-56q-6 -43 -37.5 -72.5t-74.5 -32.5v29q35 3 59 29t24 61.5t-24 61.5t-59 29v30q43 -3 74.5 -33t36.5 -72h57q7 0 12 4q4 6 4 12v180h-184v30h184v34l-82 103h-102v30h79l-49 60h-30v30v0z
M333 733q28 -15 50 -37v0q11 -11 20 -23h165q25 0 42 -18v0q17 -17 17 -42v-35h184v-30h-184v-453h57q6 45 40 75t79 30h8v-30h-8q-37 0 -63.5 -26.5t-26.5 -64t26.5 -64t63.5 -26.5q5 0 8 1v-30h-8q-45 0 -79.5 30t-39.5 75h-300q-6 -53 -51 -84v40q22 25 22 58.5t-22 59.5
v39q44 -30 51 -83h214v518q0 12 -9 21v0q-9 9 -21 9h-146q27 -50 27 -106q0 -93 -66 -159q-22 -22 -50 -38v35q17 11 29 24q57 57 57 137.5t-57 138.5v0q-13 13 -29 24v34v0v0zM811 488h-34q-20 0 -34 -14t-14 -34v-101q0 -20 14 -34t33 -14h35v30h-35q-7 0 -12 5t-5 13v101
q0 7 5 12.5t13 5.5h34v30v0zM225 761q58 0 108 -28v-34q-49 33 -108 33q-19 0 -36 -4v31q18 2 36 2v0v0zM333 -19q-31 -22 -68 -22q-43 0 -76 28v43q27 -41 76 -41q41 0 68 32v-40v0zM333 375v-34q-50 -29 -108 -29q-18 0 -36 3v30q17 -3 36 -3q59 0 108 33v0v0zM333 178
v-39q-27 31 -68 31q-49 0 -76 -41v44q33 27 76 27q37 0 68 -22v0v0zM189 -13q-38 30 -44 78h-46q-25 0 -42.5 17.5t-17.5 42.5v285q-39 58 -39 127q0 93 66 159q52 51 123 63v-31q-59 -10 -102 -53q-57 -58 -57 -138.5t57 -137.5v0q43 -43 102 -54v-30q-69 11 -120 60v-250
q0 -13 8.5 -21.5t21.5 -8.5h46q6 47 44 78v-44q-15 -22 -15 -49t15 -50v-43v0v0zM210 440q-6 -6 -14.5 -5.5t-14.5 6.5l-68 72q-6 6 -5.5 14.5t6.5 14.5v0q6 5 14 5t14 -6l69 -73q5 -6 5 -14t-6 -14v0zM218 438q-6 -5 -14.5 -5t-14.5 6l-2 3q-6 6 -6 14.5t6 13.5l128 121
q6 6 14.5 5.5t14.5 -6.5l2 -2q6 -6 5.5 -14.5t-6.5 -14.5z" />
    <glyph glyph-name="loading" unicode="&#xe645;" 
d="M876 212q-23 0 -39.5 16t-16.5 39t16.5 39.5t39.5 16.5t39 -16.5t16 -39.5t-16 -39t-39 -16zM769 476q-19 0 -32.5 13.5t-13.5 32.5t13.5 32.5t32.5 13.5t33 -13.5t14 -32.5t-14 -32.5t-33 -13.5zM769 82q27 0 46 -19t19 -46t-19 -46t-46 -19t-46 19t-19 46t19 46t46 19z
M514.5 517q-46.5 0 -79 32.5t-32.5 79t32.5 79t79 32.5t79 -32.5t32.5 -79t-32.5 -79t-79 -32.5zM262 420q-41 0 -70.5 29t-29.5 70.5t29.5 70.5t70.5 29t70.5 -29t29.5 -70.5t-29.5 -70.5t-70.5 -29zM246 267.5q0 -38.5 -27 -66t-65.5 -27.5t-65.5 27.5t-27 66t27 65.5
t65.5 27t65.5 -27t27 -65.5zM262 96q34 0 57.5 -24t23.5 -57.5t-23.5 -57t-57.5 -23.5t-57.5 23.5t-23.5 57t23.5 57.5t57.5 24zM517 -20q30 0 51 -21t21 -51t-21 -51t-51 -21t-51 21t-21 51t21 51t51 21z" />
    <glyph glyph-name="yichuchahao" unicode="&#xe62b;" 
d="M853 -16l-25 -25l-316 316l-316 -316l-25 25l316 316l-316 316l25 25l316 -316l316 316l25 -25l-316 -316z" />
    <glyph glyph-name="jiazaizhong" unicode="&#xe646;" 
d="M512 -66q-186 0 -318 132t-132 318t132 318t318 132t318 -132t132 -318t-132 -318t-318 -132zM604 747q8 -18 8 -38q0 -41 -29.5 -70.5t-70.5 -29.5t-70.5 29.5t-29.5 70.5q0 20 8 38q-124 -31 -203.5 -132t-79.5 -231q0 -102 50 -188.5t136.5 -136.5t188.5 -50t188.5 50
t136.5 136.5t50 188.5q0 130 -79.5 231t-203.5 132z" />
    <glyph glyph-name="mima" unicode="&#xe603;" 
d="M511 285q-22 0 -38 -15.5t-16 -37.5q0 -24 18 -40v-49q0 -15 10.5 -25.5t25.5 -10.5t25 10.5t10 25.5v49q18 16 18 40q0 22 -15.5 37.5t-37.5 15.5v0zM760 445h-35v89q0 89 -63 151.5t-151.5 62.5t-151 -62.5t-62.5 -151.5v-89h-35q-37 0 -63 -26t-26 -63v-338
q0 -37 26 -63t63 -26h498q37 0 63 26t26 63v338q0 37 -26 63t-63 26v0zM511 712q74 0 126 -52t52 -126v-89h-356v89v0q0 74 52 126t126 52v0zM814 18q0 -22 -16 -37.5t-38 -15.5h-498q-22 0 -38 15.5t-16 37.5v338q0 23 16 38.5t38 15.5h498q22 0 38 -15.5t16 -38.5v-338v0z
M814 18z" />
    <glyph glyph-name="guanbi1" unicode="&#xe612;" 
d="M512 -148q-185 0 -316.5 131.5t-131.5 316.5t131.5 316.5t316.5 131.5t316.5 -131.5t131.5 -316.5t-131.5 -316.5t-316.5 -131.5zM512 684q-104 0 -192.5 -51.5t-140 -140t-51.5 -192.5t51.5 -192.5t140 -140t192.5 -51.5t192.5 51.5t140 140t51.5 192.5t-51.5 192.5
t-140 140t-192.5 51.5zM557 299l138 136q10 10 10 23t-9.5 22.5t-22.5 9.5t-23 -9l-138 -137l-137 137q-9 9 -22 9t-22.5 -9t-9.5 -22.5t9 -22.5l136 -137l-137 -136q-9 -9 -9.5 -22.5t9 -23t22.5 -9.5q14 0 23 10l138 136l138 -140q10 -9 23 -9t22.5 9.5t9.5 22.5t-9 23z
" />
    <glyph glyph-name="xinzeng2" unicode="&#xe62c;" 
d="M960 300q0 -13 -9 -22.5t-22 -9.5h-834q-13 0 -22 9.5t-9 22.5v0q0 13 9 22.5t22 9.5h834q13 0 22 -9.5t9 -22.5v0zM512 748q13 0 22.5 -9t9.5 -22v-834q0 -13 -9.5 -22t-22.5 -9v0q-13 0 -22.5 9t-9.5 22v834q0 13 9.5 22t22.5 9v0z" />
    <glyph glyph-name="loadding" unicode="&#xe648;" 
d="M746 45q7 -12 3.5 -26t-16.5 -21q-12 -7 -25.5 -3.5t-20.5 15.5q-8 13 -4 26.5t16 20.5q13 7 26.5 3.5t20.5 -15.5v0v0zM544 -28v0q0 -14 -10 -24t-25 -10q-14 0 -24 10t-10 24v24q0 14 10 24t24 10q15 0 25 -10t10 -24v-24zM333 10v0q-7 -12 -21 -16t-26 4
q-13 7 -16.5 20.5t3.5 26.5l26 44q7 12 21 16t26 -3t16 -21t-4 -26zM169 149v0q-12 -7 -26 -3.5t-21 16.5q-7 12 -3.5 25.5t15.5 20.5l69 40q12 7 26 3.5t21 -16.5q7 -12 3 -25.5t-16 -21.5zM96 351v0q-14 0 -24 10t-10 24.5t10 24.5t24 10h107q14 0 24 -10t10 -24.5
t-10 -24.5t-24 -10h-107zM134 563v0q-12 6 -15.5 20t3.5 26q7 13 21 16.5t26 -3.5l116 -67q12 -7 15.5 -21t-2.5 -26q-8 -12 -21.5 -15.5t-25.5 3.5zM273 726v0l81 -140q7 -12 21 -15.5t26 3.5t15.5 20.5t-3.5 26.5l-81 140q-7 12 -20.5 15.5t-25.5 -3.5q-13 -7 -16.5 -21
t3.5 -26v0zM475 799v0q0 14 10 24t24 10q15 0 25 -10t10 -24v-162q0 -14 -10 -24t-25 -10q-14 0 -24 10t-10 24v162zM686 761v0q8 12 21.5 15.5t25.5 -3.5q13 -7 16.5 -20.5t-3.5 -26.5l-81 -140q-7 -12 -21 -16t-26 3.5t-15.5 21t3.5 26.5zM851 622v0l-141 -81
q-12 -7 -15.5 -20.5t3.5 -26.5q7 -12 21 -15.5t26 3.5l140 81q12 7 15.5 20.5t-3.5 25.5q-7 13 -20.5 16.5t-25.5 -3.5v0zM923 420v0q14 0 24 -10t10 -24.5t-10 -24.5t-24 -10h-162q-14 0 -24 10t-10 24.5t10 24.5t24 10h162z" />
    <glyph glyph-name="xuanze" unicode="&#xe613;" 
d="M282 44h-205q-32 0 -54.5 22.5t-22.5 54.5v614q0 32 22.5 54.5t54.5 22.5h717q31 0 53.5 -22.5t22.5 -54.5v-358q0 -11 -7.5 -18.5t-18 -7.5t-18 7.5t-7.5 18.5v358q0 11 -7.5 18.5t-17.5 7.5h-717q-11 0 -18.5 -7.5t-7.5 -18.5v-614q0 -11 7.5 -18.5t18.5 -7.5h205
q10 0 17.5 -7.5t7.5 -18t-7.5 -18t-17.5 -7.5v0zM666 -212q-18 0 -24 16l-87 217l-152 -173q-11 -13 -28 -7t-17 24v768q0 16 15.5 23t27.5 -4l563 -512q13 -12 7 -28.5t-24 -16.5h-218l88 -221q4 -10 0 -19.5t-14 -13.5l-128 -51q-5 -2 -9 -2v0zM563 95h4q15 -2 20 -16
l93 -232l80 32l-93 232q-5 13 3 24t21 11h190l-471 429v-642l134 154q8 8 19 8v0z" />
    <glyph glyph-name="shanchu" unicode="&#xe600;" 
d="M782 571.5q55 -55.5 84 -126.5q29 -70 28 -145q1 -75 -28 -144q-29 -72 -84 -127t-127 -84q-69 -28 -144 -28t-144 28q-72 29 -127 84t-84 127q-28 69 -28 144t28 145q29 71 84 126.5t127 84.5q69 28 144 28t144 -28q72 -29 127 -84.5zM828 617q-65 64 -148.5 97.5
t-168.5 33.5t-168.5 -33.5t-147.5 -97.5q-86 -86 -116.5 -201.5t0 -230.5t116.5 -201q64 -64 147.5 -97.5t168.5 -33.5t168.5 33.5t148.5 97.5q85 86 115.5 201t0 230.5t-115.5 201.5v0v0zM557 299l160 159l-45 45l-160 -159l-159 159l-46 -45l160 -160l-157 -156l45 -46
l157 157l157 -157l45 45zM714 141z" />
    <glyph glyph-name="zengzhifuwu" unicode="&#xe61b;" 
d="M512 753q-92 0 -176 -35.5t-145 -96.5t-96.5 -145t-35.5 -176t35.5 -176t96.5 -145t145 -96.5t176 -35.5t176 35.5t145 96.5t96.5 145t35.5 176t-35.5 176t-96.5 145t-145 96.5t-176 35.5zM512 -108q-111 0 -205 54.5t-148.5 148.5t-54.5 205t54.5 205t148.5 148.5
t205 54.5t205 -54.5t148.5 -148.5t54.5 -205t-54.5 -205t-148.5 -148.5t-205 -54.5zM687 389q-10 11 -10 28q0 18 13 31.5t31.5 13.5t32.5 -13.5t14 -31.5t-12 -31t-29 -15l-69 -187q-83 11 -146 11q-28 0 -54 -2t-53.5 -5t-38.5 -4l-68 188q-16 0 -29 13.5t-13 31.5
q0 19 14 32.5t32.5 13.5t31.5 -13.5t13 -32.5q0 -11 -11 -28l66 -74l27 132q-14 1 -24.5 14t-10.5 31q0 20 14 34t34 14t34 -14t14 -34q0 -28 -22 -39l45 -131h1l43 131q-19 15 -19 39q0 20 14.5 34t34.5 14q19 0 33.5 -14t14.5 -34q0 -34 -33 -45l22 -132l63 74v0zM328 60
q0 16 0.5 26t3.5 26.5t11 26t21 10.5q11 1 39 4t54 5t53 2q63 0 147 -11q14 -2 23 -10.5t12.5 -24t4 -25.5t0.5 -29h-369v0z" />
    <glyph glyph-name="yanzhengma" unicode="&#xe604;" 
d="M896 -101h-768q-24 0 -42.5 28t-18.5 56v656q0 25 18 43.5t43 18.5h768q25 0 43 -18.5t18 -43.5v-656q0 -28 -18.5 -56t-42.5 -28v0zM128 667q-11 0 -19.5 -8t-8.5 -20v-656q0 -14 9 -32t19 -18h768q10 0 19 18t9 32v656q0 12 -8.5 20t-19.5 8h-768v0zM292 406
q-35 0 -59.5 24.5t-24.5 59t24.5 59t59.5 24.5t59.5 -24.5t24.5 -59t-24.5 -59t-59.5 -24.5v0zM292 540q-21 0 -35.5 -15t-14.5 -35.5t14.5 -35.5t35.5 -15t35.5 15t14.5 35.5t-14.5 35.5t-35.5 15v0zM151 123q-9 0 -14 6q-4 6 -3 13t7 11l186 134q11 9 22 -2l77 -77
l212 211q5 5 12 5t12 -5l223 -223q5 -5 5 -12t-5 -12t-12 -5t-11 5l-212 212l-212 -212q-5 -5 -12 -5t-12 5l-79 79l-167 -125q-5 -3 -17 -3v0zM873 100h-313q-7 0 -11.5 5t-4.5 12t4.5 12t11.5 5h313q7 0 12 -5t5 -12t-5 -12t-12 -5v0zM873 3h-492q-6 0 -11 5t-5 12t5 12
t11 5h492q7 0 12 -5t5 -12t-5 -12t-12 -5v0zM873 3z" />
    <glyph glyph-name="shaixuan" unicode="&#xe630;" 
d="M261 627l144 -268v-87l53 -33v138l-107 196h322l-107 -196v-203l53 -33v236l144 250h-376h-126zM512 894q-104 0 -198.5 -40.5t-162.5 -108.5t-108.5 -162.5t-40.5 -198.5t40.5 -198.5t108.5 -162.5t162.5 -108.5t198.5 -40.5t198.5 40.5t162.5 108.5t108.5 162.5
t40.5 198.5t-40.5 198.5t-108.5 162.5t-162.5 108.5t-198.5 40.5zM512 -72q-93 0 -177.5 36t-145.5 97t-97 145.5t-36 177.5t36 177.5t97 145.5t145.5 97t177.5 36t177.5 -36t145.5 -97t97 -145.5t36 -177.5t-36 -177.5t-97 -145.5t-145.5 -97t-177.5 -36z" />
    <glyph glyph-name="choujiang" unicode="&#xe614;" 
d="M855 445q-11 0 -18.5 -8t-7.5 -19v-364q0 -27 -18.5 -47t-45.5 -20h-571q-28 0 -53 20.5t-25 46.5v573q0 26 25.5 50t52.5 24h307q12 0 20 8t8 19t-8 18.5t-20 7.5h-307q-54 0 -92.5 -36.5t-38.5 -90.5v-573q0 -53 38 -86.5t93 -33.5h571q54 0 85.5 33t31.5 87v364
q0 11 -7.5 19t-19.5 8v0zM937 717l-93 94q-23 23 -57.5 23t-57.5 -23l-76 -90l-405 -388l-27 -233l13 -11l226 30l388 407l89 73q24 24 24 59.5t-24 58.5v0zM286 153l6 109l101 -100l-107 -9v0zM441 190l-123 123l363 361l120 -121l-360 -363v0zM899 641l-54 -55l-132 132
l54 54q8 8 19.5 8t19.5 -8l93 -93q8 -8 8 -19t-8 -19v0zM899 641z" />
    <glyph glyph-name="xiayi" unicode="&#xe634;" 
d="M576 -64l-512 448l512 448v-256h384v-384h-384v-256z" />
    <glyph glyph-name="29" unicode="&#xe62d;" 
d="M512 890q-103 0 -196.5 -40t-161.5 -108t-108 -161.5t-40 -196.5t40 -197t108 -162t161.5 -108t196.5 -40t197 40t161.5 108t107.5 162t40 197t-40 196.5t-107.5 161.5t-161.5 108t-197 40zM512.5 -42q-115.5 0 -213.5 57t-155 155t-57 213.5t57 213.5t155 155t213.5 57
t213.5 -57t154.5 -155t56.5 -213.5t-56.5 -213.5t-154.5 -155t-213.5 -57zM740 454h-456q-20 0 -35 -15t-15 -36t15 -35.5t35 -14.5h456q21 0 36 14.5t15 35.5t-15 36t-36 15z" />
    <glyph glyph-name="xiangqian1" unicode="&#xe60e;" 
d="M627 755l346 -313q6 -5 14.5 -12t22.5 -26t14 -33t-13 -31.5t-25 -28.5l-13 -10l-346 -314q-38 -25 -57 -25q-24 0 -44 20t-20 44v0v172h-461q-19 0 -32 13t-13 32v256q0 19 13 32t32 13h461v173v0q0 28 19 46t45 18q8 3 22.5 -3.5t24.5 -14.5z" />
    <glyph glyph-name="loading1" unicode="&#xe647;" 
d="M123 51v0q0 -31 21.5 -52.5t52 -21.5t52.5 21.5t22 52.5v0v0q0 31 -22 52.5t-52.5 21.5t-52 -21.5t-21.5 -52.5v0zM448 717q0 -31 22 -52.5t52.5 -21.5t52 21.5t21.5 52.5v0q0 31 -21.5 52.5t-52 21.5t-52.5 -21.5t-22 -52.5v0zM774 51v0q0 -31 21.5 -52.5t52 -21.5
t52.5 21.5t22 52.5v0v0q0 31 -22 52.5t-52.5 21.5t-52 -21.5t-21.5 -52.5v0z" />
    <glyph glyph-name="chelianggenzong" unicode="&#xe607;" horiz-adv-x="1025" 
d="M733.5 177q-31.5 0 -54 -22.5t-22.5 -54t22.5 -54.5t54 -23t53.5 23t22 54.5t-22 54t-53.5 22.5zM733.5 43q-23.5 0 -40.5 16.5t-17 40.5t17 41t40.5 17t40 -17t16.5 -41t-16.5 -40.5t-40 -16.5zM895 208h-167q40 0 73 -29t33 -67q0 -5 3.5 -8.5t8.5 -3.5h52q5 0 8.5 4
t3.5 9v80q0 5 -5 10t-10 5zM288 224v261q0 11 -10 21t-20 10h-122q-14 0 -26 -8.5t-19 -22.5q-46 -92 -61 -138v-139h-15q-5 0 -10 -6t-5 -12v-77q0 -13 16 -13h23q5 0 8.5 3.5t3.5 8.5q0 38 31 67t70 29t69.5 -29t30.5 -67q0 -5 4 -8.5t9 -3.5h355q6 0 9.5 3.5t3.5 8.5
q0 38 28.5 67t66.5 29h-425q-10 0 -12.5 2.5t-2.5 13.5zM236 331h-160v26l27 68q2 4 4.5 9.5t12.5 15t21 9.5h95v-128zM151.5 177q-31.5 0 -53.5 -22.5t-22 -54t22 -54.5t53.5 -23t54 23t22.5 54.5t-22.5 54t-54 22.5zM151.5 43q-23.5 0 -40 16.5t-16.5 40.5t16.5 41t40 17
t40.5 -17t17 -41t-17 -40.5t-40.5 -16.5zM1017 430l-65 69q31 41 31 91q0 64 -46 109.5t-110.5 45.5t-110.5 -45.5t-46 -109t46 -109t111 -45.5q33 0 64 14l70 -73q7 -7 17 -7.5t17 6.5l21 20q8 7 8 17t-7 17zM826.5 475q-48.5 0 -83 34t-34.5 81.5t34.5 81.5t83 34t83 -34
t34.5 -81.5t-34.5 -81.5t-83 -34zM884 400v-100q0 -11 -8 -18.5t-19 -7.5h-483q-10 0 -18 7.5t-8 18.5v318q0 10 8 18t18 8h258q4 14 10 26h-267q-22 0 -37.5 -15.5t-15.5 -37.5v-322q0 -21 15.5 -36.5t37.5 -15.5h482q22 0 37.5 15.5t15.5 36.5v114q-13 -5 -26 -9z" />
    <glyph glyph-name="qizhi" unicode="&#xe616;" 
d="M734 813q-105 0 -182 42q-76 41 -181 41q-83 0 -182 -54v-456q99 54 182 54q105 0 181.5 -41.5t181.5 -41.5q79 0 182 56v456q-103 -56 -182 -56zM121.5 896q-16.5 0 -28.5 -12t-12 -28v-890q0 -16 12 -28t28.5 -12t28.5 12t12 28v890q0 16 -12 28t-28.5 12z" />
    <glyph glyph-name="store" unicode="&#xe61c;" 
d="M992 739q-1 39 -29 66t-67 27h-768q-40 0 -68 -28t-28 -68v-704q0 -40 28 -68t68 -28h768q40 0 68 28t28 68v707v0zM528 800h200v-253q0 -41 -29.5 -70.5t-70.5 -29.5t-70.5 29.5t-29.5 70.5v253zM296 800h200v-253q0 -41 -29.5 -70.5t-70.5 -29.5t-70.5 29.5t-29.5 70.5
v253zM64 668v68q0 26 19 45t45 19h136v-253q0 -41 -29.5 -70.5t-70.5 -29.5t-70.5 29.5t-29.5 70.5v121zM800 -32h-224v320q0 13 9.5 22.5t22.5 9.5h160q13 0 22.5 -9.5t9.5 -22.5v-320zM960 32q0 -26 -19 -45t-45 -19h-64v320q0 27 -18.5 45.5t-45.5 18.5h-160
q-27 0 -45.5 -18.5t-18.5 -45.5v-320h-416q-26 0 -45 19t-19 45v429q40 -46 100 -46q37 0 68 19t48 50q17 -31 48 -50t68 -19t68 19t48 50q17 -31 48 -50t68 -19t68 19t48 50q17 -31 48 -50t68 -19q60 0 100 46v-429zM960 547q0 -41 -29.5 -70.5t-70.5 -29.5t-70.5 29.5
t-29.5 70.5v253h136q26 0 45 -19t19 -45v-189zM352 352h-160q-27 0 -45.5 -18.5t-18.5 -45.5v-64q0 -27 18.5 -45.5t45.5 -18.5h160q27 0 45.5 18.5t18.5 45.5v64q0 27 -18.5 45.5t-45.5 18.5zM384 224q0 -13 -9.5 -22.5t-22.5 -9.5h-160q-13 0 -22.5 9.5t-9.5 22.5v64
q0 13 9.5 22.5t22.5 9.5h160q13 0 22.5 -9.5t9.5 -22.5v-64z" />
    <glyph glyph-name="02" unicode="&#xe61d;" 
d="M239 795q64 0 109.5 -45.5t45.5 -109.5t-45.5 -109t-109.5 -45t-109.5 45t-45.5 109t45.5 109.5t109.5 45.5v0v0zM316 655v59l-99 -88l-55 49v-59l55 -50l99 89v0zM932 273h-19h-174q-6 0 -13 6.5t-7 11.5v1q-1 46 -1 83v86q0 11 8.5 19.5t21.5 8.5q1 0 14 1t32.5 -1
t41 -10t40.5 -26q29 -30 41.5 -73t22.5 -89q0 -2 0.5 -3t0.5 -3q0 -11 -9 -12v0v0zM1006 262q-7 53 -25 108.5t-53 104.5q-20 28 -49.5 47.5t-62.5 32t-66.5 17.5t-64.5 2q-11 -1 -18 -14.5t-7 -23.5v-454q0 -17 12.5 -29.5t28.5 -12.5h17q0 24 9 45t24.5 37t36.5 25.5
t45.5 9.5t46.5 -6.5t38.5 -21t26.5 -37t10 -54.5h39q5 0 8.5 6t5.5 14t3 16t1 13q0 29 1 76q0 46 -7 99v0v0zM838 98q25 0 42.5 -18t17.5 -43t-17.5 -43t-42.5 -18t-42.5 18t-17.5 43t17.5 43t42.5 18v0v0zM190 98q-26 0 -43 -17.5t-17 -43.5q0 -24 17 -42t42.5 -18t43 18
t17.5 42q0 26 -17.5 43.5t-42.5 17.5v0v0zM431 689q7 -25 7 -52q0 -41 -16 -76.5t-42.5 -62.5t-62.5 -42.5t-76 -15.5q-41 0 -77 15.5t-62.5 42.5t-42.5 62.5t-16 76.5v9q-13 -16 -21 -36q-8 -22 -8 -44v-490q0 -18 10.5 -27.5t26.5 -9.5h21q0 60 30.5 90t88.5 30
q60 0 88.5 -32t28.5 -88h257q15 0 26 10.5t11 26.5l-2 613h-169v0zM431 689z" />
    <glyph glyph-name="cuowu" unicode="&#xe6cf;" horiz-adv-x="1056" 
d="M885.5 747.5q-73.5 73.5 -169.5 112t-193 38.5t-192.5 -38.5t-169.5 -111.5q-98 -99 -133 -230.5t0 -263.5t133 -230q74 -74 169.5 -112.5t192.5 -38.5t193 38.5t169.5 112t112 169.5t38.5 193t-38.5 192.5t-112 169zM733 297q21 -22 21 -52.5t-21 -51.5l-17 -17
q-22 -22 -52 -22t-52 22l-89 89l-89 -89q-21 -22 -51.5 -21.5t-51.5 21.5l-17 17q-22 21 -22 51.5t22 52.5l89 89l-89 89q-22 21 -22 51.5t22 51.5l17 17q21 22 51.5 22t51.5 -22l89 -89l89 89q22 22 52.5 22t51.5 -22l17 -17q21 -21 21.5 -51.5t-21.5 -51.5l-89 -89z" />
    <glyph glyph-name="zhengxu" unicode="&#xe631;" horiz-adv-x="1054" 
d="M35 56h533v63h-533v-63zM444 405h-409v-64h409v64zM317 690h-282v-63h282v63zM784 846l-19 -19l-19 22l-270 -273l44 -44l207 209v-812h63v822l216 -219l44 44z" />
    <glyph glyph-name="zengzhiyewu" unicode="&#xe61e;" 
d="M746 768h-468q-62 0 -106 -41t-44 -100v-486q0 -58 44 -99.5t106 -41.5h468q62 0 106 41.5t44 99.5v486q0 59 -44 100t-106 41v0v0zM842 141q0 -36 -28 -61.5t-68 -25.5h-468q-40 0 -68 25.5t-28 61.5v486q0 36 28 61.5t68 25.5h468q40 0 68 -25.5t28 -61.5v-486v0v0z
M842 141zM705 482q-11 13 -11 31q0 20 14.5 35t35 15t35.5 -15t15 -35t-13 -34t-32 -17l-76 -205q-92 11 -161 11q-31 0 -59.5 -2t-59 -5.5t-42.5 -3.5l-75 206q-18 0 -32 15t-14 35t15 35t35.5 15t35 -15t14.5 -35q0 -12 -12 -30l73 -83l30 147q-15 0 -27.5 14.5
t-12.5 34.5q0 22 16 37.5t38 15.5q21 0 37 -15.5t16 -37.5q0 -13 -6.5 -25.5t-18.5 -17.5l50 -145h1l48 145q-21 16 -21 43q0 22 15.5 37.5t37.5 15.5t37.5 -15.5t15.5 -37.5q0 -38 -36 -49l25 -146l69 81v0v0zM309 119q0 19 0.5 29.5t4 29t12.5 28.5t23 11q12 1 43 4.5
t59.5 5.5t58.5 2q70 0 162 -12q16 -2 25.5 -11t13 -26.5t4.5 -28.5t1 -32h-407v0v0zM309 119z" />
    <glyph glyph-name="icon" unicode="&#xe61f;" 
d="M814 768h-46v-63h29q41 0 69.5 -29t28.5 -70v-504q0 -41 -28.5 -70t-69.5 -29h-570q-41 0 -70 29t-29 70v504q0 41 29 70t70 29h29v63h-47q-60 0 -102.5 -42.5t-42.5 -102.5v-541q0 -60 42.5 -102.5t102.5 -42.5h605q60 0 102.5 42.5t42.5 102.5v541q0 60 -42.5 102.5
t-102.5 42.5zM640 704v128h-256v-128h-64v-64h64h256h64v64h-64zM448 704v64h128v-64h-128zM256 512h256v-64h-256v64zM256 384h512v-64h-512v64zM256 256h512v-64h-512v64z" />
    <glyph glyph-name="yidong" unicode="&#xe636;" 
d="M882 61h1l-144 -153v0q-15 -15 -36 -15t-36 15v0l-144 153h1q-13 13 -13 30q0 19 14 32.5t34 13.5q21 0 36 -15v0l60 -64v765q0 19 14 32.5t34 13.5t34 -13.5t14 -32.5v-765l60 64v0q15 15 36 15q20 0 34 -13.5t14 -32.5q0 -17 -13 -30v0zM431 625q-21 0 -35 15v0l-61 64
v-765q0 -19 -14 -32.5t-33.5 -13.5t-34 13.5t-14.5 32.5v765l-60 -64v0q-14 -15 -35 -15q-20 0 -34 13.5t-14 32.5q0 17 12 30v1l144 152v0q14 15 35.5 15t35.5 -15v0l144 -152v-1q12 -13 12 -30q0 -19 -14 -32.5t-34 -13.5v0z" />
    <glyph glyph-name="question" unicode="&#xe609;" 
d="M512 896q-139 0 -257 -68.5t-186.5 -186.5t-68.5 -257t68.5 -257t186.5 -186.5t257 -68.5t257 68.5t186.5 186.5t68.5 257t-68.5 257t-186.5 186.5t-257 68.5v0zM563 26h-102v102h102v-102v0zM669 422l-46 -47q-32 -32 -46 -62t-14 -83h-102v26q0 84 60 145l63 64
q30 30 30 73q0 42 -30 72t-72 30t-72 -30t-30 -72h-103q0 84 60 144t145 60t145 -60t60 -144q0 -68 -48 -116v0z" />
    <glyph glyph-name="yichu" unicode="&#xe62e;" 
d="M638 832h-252v-53h252v53zM957 694h-894v-53h894v53zM830 -10h-636v-53h636v53zM247 -63v586h-53v-586h53zM439 -63v586h-53v-586h53zM638 -63v586h-53v-586h53zM830 -63v586h-53v-586h53z" />
    <glyph glyph-name="shangdian" unicode="&#xe620;" 
d="M967 343q-19 0 -35 11l3 -17h1v-346h-848v346h1l2 17q-15 -11 -34 -11q-24 0 -40.5 16t-16.5 39v38l144 265l1 7h3h77l-111 -272v-38q0 -23 16.5 -39t40 -16t40.5 16t17 39v38l85 266v6h74l-46 -272v-38q0 -23 17 -39t40.5 -16t40 16t16.5 39v38l23 272h68l23 -272v-38
q0 -23 16.5 -39t40 -16t40.5 16t17 39v38l-46 272h74v-6l85 -266v-38q0 -23 17 -39t40.5 -16t40 16t16.5 39v38l-111 272h77l148 -272v-38q0 -23 -16.5 -39t-40.5 -16zM882 711h-740q-12 0 -20 8t-8 19v11q0 11 8 19.5t20 8.5h740q12 0 20 -8.5t8 -19.5v-11q0 -11 -8 -19
t-20 -8z" />
    <glyph glyph-name="jijianchaxun" unicode="&#xe606;" 
d="M946 5l-62 61v0l-137 137l-52 7v1l-1 -1t-1 -2q-2 -1 -4 -3l-4 -4q-93 -90 -222 -90q-87 0 -160.5 43t-116.5 116.5t-43 160.5t43 160.5t116.5 116.5t160.5 43t161 -43t116.5 -116.5t42.5 -160.5q0 -50 -15 -97h1q-5 -9 -5 -18l1 -4q0 -17 11.5 -28.5t28.5 -11.5
q23 0 35 20v0l2 4q1 2 1 5q22 63 22 129q0 109 -53.5 201.5t-146 146t-201.5 53.5t-201.5 -53.5t-146 -146t-53.5 -201t53.5 -201t146 -146t201.5 -53.5q143 0 253 90l172 -172q12 -11 28.5 -11t28 11.5t11.5 28t-11 28.5v0zM946 5zM675 298h-34q-3 25 -22 42t-44.5 17
t-44 -17t-22.5 -42h-25q-11 0 -18 7.5t-7 17.5v226q0 10 7 17.5t18 7.5h192q10 0 17.5 -7.5t7.5 -17.5v-226q0 -10 -7.5 -17.5t-17.5 -7.5v0v0v0zM416 298h-17q-3 25 -22 42t-44.5 17t-44.5 -17t-22 -42h-17q-7 0 -12 5t-5 12v92q0 25 32 71t52 46h100q7 0 12 -5t5 -12v-192
q0 -7 -5 -12t-12 -5v0v0v0zM383 482q-27 1 -58 0q-11 -1 -31 -29t-20 -46v-9h109v84v0v0v0zM333 332q17 0 29 -12.5t12 -30t-12 -29.5t-29.5 -12t-29.5 12t-12 29.5t12 30t30 12.5v0v0v0zM577 332q18 0 31 -13t13 -31t-13 -31t-31 -13t-31 13t-13 31t13 31t31 13v0v0v0z
M577 332z" />
    <glyph glyph-name="icon22" unicode="&#xe60a;" 
d="M51 51.5q0 2.5 -7 6.5t-10 11t-5.5 7t-2.5 96t3.5 97t10 6t11.5 5q9 0 21 12.5t16 26.5q6 19 1 39q-7 25 -36 37q-16 6 -19.5 8.5t-5.5 2.5t-2 75t2.5 75t5.5 7.5t11 13.5l9 5l75 1q76 1 79 -1.5t2.5 -263.5t-1.5 -265l-1 -4h-78q-79 0 -79 2.5zM279 52v266q0 262 2 264
q3 2 278.5 1.5t279.5 -2.5t7.5 -10.5t2.5 -13.5q-4 -18 -16 -22q-7 -2 -14 -10t-8 -14q-4 -17 10 -30q8 -7 10.5 -7t11 -8.5t9.5 -20.5q1 -19 -16 -26t-24.5 -20.5t-1.5 -27.5q3 -6 10 -13t14 -10q5 -2 10.5 -9t6.5 -14q3 -15 -8 -27q-6 -5 -16 -13q-40 -27 1 -56
q27 -20 21 -41q-2 -5 -9.5 -13t-11.5 -8t-12.5 -9t-10.5 -16q-2 -8 2.5 -18t16.5 -19.5t15 -14.5q9 -14 -1 -33l-4 -8h-278q-277 0 -277 3v0zM547 167q4 5 4 27.5t2.5 24.5t35.5 3q31 1 35.5 3.5t5.5 20.5q1 16 -4 21l-5 6l-33 -1q-27 -1 -33 1t-6 10q0 6 2.5 9.5t38.5 3.5
q26 1 31 1.5t8 3.5q3 5 3 17q0 20 -10 26q-6 4 -26.5 3t-23 2t0 7.5t3.5 5.5t7.5 9.5t17.5 23.5q26 35 30 44.5t-5 18.5q-7 7 -17 13t-14 5q-8 -2 -31 -37q-27 -41 -33.5 -49.5t-9.5 -8.5q-5 0 -36 42q-26 34 -34.5 43.5t-12.5 9.5q-1 0 -15.5 -11t-17.5 -13q-7 -10 8 -29
q11 -12 26.5 -32t22.5 -28.5t7 -10.5q0 -5 -27 -4q-26 0 -32.5 -4.5t-5.5 -22.5q2 -20 7.5 -23t38.5 -2q31 1 35 -2q4 -4 5 -10t-3 -10q-2 -3 -7 -3.5t-30 -0.5h-34l-6 -5q-5 -5 -5 -17q0 -20 8 -24.5t40 -3.5q29 1 33.5 -2t4.5 -23t1 -25q4 -9 33 -8q19 1 22 5v0zM914 174
q0 3 4.5 8.5t5 15t-2.5 15.5t-15.5 17.5t-14.5 21t0 19.5t12 19q17 16 17 32q0 15 -18 32q-11 11 -12 20t1 20t15 24q18 21 15 37q-1 6 -6 13.5t-9 8.5q-3 2 -9 9t-9 13q-10 27 19 53l14 13l1 19q0 18 -5.5 28.5t-12.5 16.5l-7 6h-258q-258 1 -260 3q-1 1 -1.5 29.5
t0.5 47.5v4h299q300 0 300 -2t4.5 -7.5t4.5 -14.5q0 -10 -13 -25q-14 -16 -14 -33q0 -11 3.5 -17t13.5 -15q12 -10 14.5 -16t5 -6t2.5 -14.5t-2 -14.5q-3 0 -8.5 -8t-9.5 -9q-16 -6 -23 -21t-1 -29q4 -6 18 -19.5t16 -23.5q8 -32 -19 -44q-8 -4 -11 -11q-9 -25 13 -42
q11 -9 14 -16t3 -23l-1 -17l-13 -12q-11 -10 -14 -15t-3 -14q0 -10 17 -29q14 -15 14 -31q0 -9 -4.5 -14t-7 -5t-32.5 -0.5t-30 3.5v0zM118 637q-3 2 -2 19.5t7 28.5q8 17 23 26q6 3 6 5.5t78 2.5h78v-41q0 -42 -3 -43t-93 -1t-94 3v0z" />
    <glyph glyph-name="xiala" unicode="&#xe63b;" 
d="M52 568.5q0 20.5 14.5 35t35 14.5t34.5 -15l379 -379l385 385q14 14 34.5 14t35 -14.5t14.5 -34.5t-15 -35l-419 -419q-14 -14 -34.5 -14t-34.5 14l-414 414q-15 14 -15 34.5z" />
    <glyph glyph-name="heqi" unicode="&#xe71c;" 
d="M930 629l-367 -540q-19 -28 -53 -28t-53 28l-367 540q-18 27 0 53t53 26h734q35 0 53 -26t0 -53z" />
    <glyph glyph-name="rizhi" unicode="&#xe621;" 
d="M803 734h-134v65q0 13 -9.5 22.5t-23 9.5t-23 -9.5t-9.5 -22.5v-65h-184v65q0 13 -9.5 22.5t-23 9.5t-23 -9.5t-9.5 -22.5v-65h-134q-32 0 -54.5 -22.5t-22.5 -54.5v-643q0 -32 22.5 -54.5t54.5 -22.5h582q32 0 54.5 22.5t22.5 54.5v643q0 32 -22.5 54.5t-54.5 22.5z
M815 14q0 -5 -3.5 -8.5t-8.5 -3.5h-582q-5 0 -8.5 3.5t-3.5 8.5v643q0 5 3.5 8.5t8.5 3.5h134v-64q0 -13 9.5 -22.5t23 -9.5t23 9.5t9.5 22.5v64h184v-64q0 -13 9.5 -22.5t23 -9.5t23 9.5t9.5 22.5v64h134q5 0 8.5 -3.5t3.5 -8.5v-643zM716 455h-408q-14 0 -23.5 -9.5
t-9.5 -23t9.5 -23t23.5 -9.5h408q14 0 23.5 9.5t9.5 23t-9.5 23t-23.5 9.5zM716 265h-408q-14 0 -23.5 -9.5t-9.5 -23t9.5 -23t23.5 -9.5h408q14 0 23.5 9.5t9.5 23t-9.5 23t-23.5 9.5z" />
    <glyph glyph-name="baocun" unicode="&#xe62f;" horiz-adv-x="1635" 
d="M980 536l-225 -225l-100 100q-11 10 -26.5 10t-26.5 -10.5t-11 -26t11 -26.5l126 -126q11 -11 26.5 -11t26.5 11l251 251q11 11 11 26.5t-11 26.5t-26 11t-26 -11v0v0zM980 536zM817 896q-105 0 -200 -40t-163 -108.5t-108.5 -163.5t-40.5 -200t40.5 -200t108.5 -163.5
t163 -108.5t200 -40t200 40t163.5 108.5t108.5 163.5t40 200t-40 200t-108.5 163.5t-163.5 108.5t-200 40zM817 -62q-89 0 -171.5 36t-142.5 96t-96 142.5t-36 171.5t35 171.5t94.5 142.5t142.5 96t174.5 36t174 -36t142 -96t94.5 -142.5t35 -171.5t-36 -171.5t-96 -142.5
t-142.5 -96t-171.5 -36zM817 837z" />
    <glyph glyph-name="xiangqian-copy" unicode="&#xe60d;" 
d="M217 356l1 -1.5l1 -1.5q6 -11 8 -13l0.5 -0.5l1 -1t1 -1.5t1.5 -1l450 -434q18 -17 42 -17q27 0 45 19q18 18 17.5 43.5t-19.5 43.5l-406 391l408 385q18 18 19 43.5t-16.5 44t-43 19.5t-44.5 -17l-454 -429q-15 -14 -18 -34t6 -38z" />
    <glyph glyph-name="xiangqian-copy1" unicode="&#xe60f;" 
d="M397 13l-346 313q-6 5 -14.5 12t-22.5 26t-14 33t14 32.5t22.5 26t14.5 11.5v0l346 314q38 25 57 25q24 0 44 -20t20 -44v0v-172h461q19 0 32 -13t13 -32v-256q0 -19 -13 -32t-32 -13h-461v-173q0 -28 -19 -46t-45 -18q-8 -3 -22.5 3.5t-24.5 14t-10 8.5z" />
    <glyph glyph-name="dadanfahuo" unicode="&#xe622;" 
d="M824 375h-39v21h39q7 0 13 8.5t6 21.5v171q0 12 -6 21t-13 9h-583q-7 0 -13 -9t-6 -21v-171q0 -13 6 -21.5t13 -8.5h42v-21h-42q-16 0 -27.5 14.5t-11.5 36.5v171q0 21 11.5 36t27.5 15h583q16 0 27.5 -15t11.5 -36v-171q0 -22 -11.5 -36.5t-27.5 -14.5zM283 455z
M785 455zM709 627h-353v76q0 16 11.5 27.5t27.5 11.5h275q16 0 27.5 -11.5t11.5 -27.5v-76zM376 648h313v55q0 8 -5.5 13.5t-13.5 5.5h-275q-8 0 -13.5 -5.5t-5.5 -13.5v-55zM811 586zM797 586q0 6 4 10.5t10 4.5t10.5 -4.5t4.5 -10.5t-4.5 -10t-10.5 -4t-10 4t-4 10z
M437 386zM619 381zM552 298h-190q-6 0 -6 7.5t6 7.5h190q6 0 6 -7.5t-6 -7.5zM691 195h-325q-10 0 -10 7.5t10 7.5h325q10 0 10 -7.5t-10 -7.5zM691 102h-325q-10 0 -10 7t10 7h325q10 0 10 -7t-10 -7zM756 16h-444q-14 0 -24 10t-10 24v403q0 14 10 24t24 10h444
q14 0 24 -10t10 -24v-403q0 -14 -10 -24t-24 -10zM312 477q-10 0 -17 -7t-7 -17v-403q0 -10 7 -17t17 -7h444q10 0 17 7t7 17v403q0 10 -7 17t-17 7h-444z" />
    <glyph glyph-name="rizhi1" unicode="&#xe623;" horiz-adv-x="1025" 
d="M804 -128h-583q-55 0 -94.5 39.5t-39.5 94.5v41q0 12 8.5 20t20 8t19.5 -8t8 -20v-41q0 -32 23 -54.5t55 -22.5h583q32 0 54.5 22.5t22.5 54.5v185q0 12 8.5 20t20 8t20 -8t8.5 -20v-185q0 -55 -39.5 -94.5t-94.5 -39.5v0zM115 188q-11 0 -19.5 8.5t-8.5 19.5v166
q0 12 8.5 20.5t20 8.5t19.5 -8.5t8 -20.5v-166q0 -11 -8 -19.5t-20 -8.5v0zM910 379q-12 0 -20.5 8.5t-8.5 20.5v181q0 32 -22.5 54.5t-54.5 22.5h-583q-32 0 -55 -22.5t-23 -54.5v-37q0 -12 -8 -20t-19.5 -8t-20 8t-8.5 20v37q0 55 39.5 94.5t94.5 39.5h583
q55 0 94.5 -39.5t39.5 -94.5v-181q0 -12 -8.5 -20.5t-19.5 -8.5v0zM910 379zM194 439h-166q-12 0 -20 8t-8 20t8 20t20 8h166q11 0 19.5 -8t8.5 -20t-8.5 -20t-19.5 -8v0zM194 439zM194 103h-166q-12 0 -20 8.5t-8 20t8 20t20 8.5h166q11 0 19.5 -8.5t8.5 -20t-8.5 -20
t-19.5 -8.5v0zM194 103zM692 439h-338q-11 0 -19.5 8t-8.5 20t8.5 20t19.5 8h338q11 0 19.5 -8t8.5 -20t-8.5 -20t-19.5 -8v0zM692 439zM692 271h-338q-11 0 -19.5 8.5t-8.5 20t8.5 20t19.5 8.5h338q11 0 19.5 -8.5t8.5 -20t-8.5 -20t-19.5 -8.5v0zM692 271zM692 103h-338
q-11 0 -19.5 8.5t-8.5 20t8.5 20t19.5 8.5h338q11 0 19.5 -8.5t8.5 -20t-8.5 -20t-19.5 -8.5v0zM692 103zM914 186q-46 0 -79 32.5t-33 79t33 79t79 32.5t79 -32.5t33 -79t-33 -79t-79 -32.5v0zM914 353q-23 0 -39.5 -16.5t-16.5 -39t16.5 -39t39.5 -16.5t39 16.5t16 39
t-16 39t-39 16.5v0zM914 353z" />
    <glyph glyph-name="waybill" unicode="&#xe624;" horiz-adv-x="1214" 
d="M489 157q-193 -86 -270.5 -119t-106.5 -38l202 337h580q-167 -74 -405 -180v0zM115 784q16 -3 43.5 -13t84 -34.5t101.5 -44.5t146 -65q227 -101 404 -179h-580l-199 336v0zM1180 443q-284 124 -645 285q-242 108 -317 138t-115 30q-47 0 -78 -38q-22 -27 -24.5 -62
t15.5 -65l202 -339l-202 -338q-18 -30 -15.5 -65t24.5 -62q31 -38 78 -38h1q39 0 113.5 29.5t316.5 137.5q356 159 646 286q16 6 25 20t9 30.5t-9 30.5t-25 20v0z" />
    <glyph glyph-name="ai246" unicode="&#xe617;" 
d="M590 652l-16 83h-372v-702h83v289h231l16 -82h289v412h-231z" />
    <glyph glyph-name="dadanfahuo50" unicode="&#xe626;" 
d="M821 306v41q34 0 58 24t24 58v121q0 34 -24 58t-58 24h-614q-34 0 -58 -24t-24 -58v-121q0 -34 24 -58t58 -24v-41q-51 0 -87 36t-36 87v121q0 51 36 87t87 36h614q51 0 87 -36t36 -87v-121q0 -51 -36 -87t-87 -36zM729 653h-41v61q0 24 -16 32.5t-66 8.5h-184
q-51 0 -66.5 -8.5t-15.5 -32.5v-61h-41v61q0 24 9.5 40.5t21 24.5t31.5 12t31 4.5t30 0.5h184q19 0 30 -0.5t31 -4.5t31.5 -12t21 -24.5t9.5 -40.5v-61zM809 493q-21 0 -36 15t-15 36t15 36t36 15t36 -15t15 -36t-15 -36t-36 -15zM809 575q-13 0 -22 -9t-9 -22t9 -22t22 -9
t22 9t9 22t-9 22t-22 9zM760 -39h-492q-34 0 -58 24.5t-24 57.5v369q0 34 24 58t58 24h492q34 0 58 -24t24 -58v-369q0 -33 -24 -57.5t-58 -24.5zM268 453q-17 0 -29 -12t-12 -29v-369q0 -17 12 -29t29 -12h492q17 0 29 12t12 29v369q0 17 -12 29t-29 12h-492zM512 282h-184
q-5 0 -8 3t-3 7t3 7t8 3h184q4 0 7 -3t3 -7t-3 -7t-7 -3zM696 138h-368q-5 0 -8 3t-3 7.5t3 7.5t8 3h368q5 0 8 -3t3 -7.5t-3 -7.5t-8 -3z" />
    <glyph glyph-name="shenhe" unicode="&#xe686;" horiz-adv-x="1025" 
d="M102 -120q-32 9 -57.5 33.5t-36.5 56.5q-5 14 -6.5 87.5t-1.5 327.5v48q0 281 4 332t28 78q3 3 4 5q20 22 45 35l24 11h748l31 -15q30 -16 50 -45l21 -30l2 -74q1 -63 -3.5 -78.5t-23.5 -15.5q-22 0 -28 15t-6 67q0 49 -6.5 67.5t-30.5 36.5q-11 8 -59.5 9.5t-317.5 1.5
q-265 0 -315.5 -1.5t-64.5 -8.5q-18 -11 -29 -34l-12 -22v-764l12 -22q8 -17 14.5 -24.5t25 -12.5t41.5 -6.5t75 -2.5q89 -3 104 -7t15 -25q0 -11 -3 -16t-17 -8.5t-36 -4.5t-67 -1q-100 1 -123 7zM983 -123q-8 2 -82 76l-75 74l-44 -27q-44 -28 -89 -43q-31 -10 -50 -12.5
t-70 -2.5q-52 0 -69.5 2.5t-49.5 13.5q-48 17 -79 37t-68 57t-59 72t-37 79q-9 28 -11.5 47t-2.5 71t2.5 71t11.5 47q15 45 37 79.5t59 71.5t71.5 59t79.5 37q28 9 47 11.5t71 2.5t71 -2.5t47 -11.5q45 -15 79.5 -37t71.5 -59q56 -56 82 -115t29 -135q6 -129 -62 -230
l-25 -38l78 -78q77 -78 77 -89t-13 -21q-11 -9 -15 -10t-13 3v0zM643 9q80 17 142.5 72t92.5 135q10 26 12.5 43t2.5 60t-2 60t-12 45q-19 57 -59 104t-92 74q-37 19 -63.5 27t-65.5 11q-87 6 -164 -33q-78 -39 -127 -111q-28 -42 -38.5 -80t-10.5 -95q0 -40 2 -58t12 -45
q20 -59 61.5 -106.5t97.5 -74.5q102 -51 211 -28v0zM559 76q-10 7 -11 21.5t7 22.5t37 12q67 8 112 49q48 44 61 120q6 32 12 40.5t24 6.5q19 -2 24.5 -17t-0.5 -49q-13 -78 -66 -134.5t-128 -72.5q-33 -7 -47 -7t-25 8zM354 385q-11 10 -10.5 19t12.5 33q19 37 62 74.5
t66 37.5q12 0 20.5 -10.5t6.5 -23.5q-2 -15 -30 -34q-49 -32 -73 -79q-11 -21 -25.5 -25.5t-28.5 8.5z" />
    <glyph glyph-name="chenggong" unicode="&#xe643;" 
d="M511 -113q-101 0 -193.5 39.5t-159 106.5t-106 159t-39.5 193t39.5 193.5t106 159t159 106t193.5 39.5t193 -39.5t159 -106t106.5 -159t39.5 -193.5t-39.5 -193t-106.5 -159t-159 -106.5t-193 -39.5v0v0zM297 435l-74 -49l280 -288q7 14 19.5 39.5t53 97.5t83 136
t106 138.5t125.5 123.5l-25 33v0q-192 -138 -312 -254q-71 -68 -91 -109z" />
    <glyph glyph-name="gexinghua" unicode="&#xe627;" 
d="M951 -11l-152 154q-9 9 -22 9t-22 -9t-9 -22t9 -22l151 -154q10 -9 23 -9q12 0 21.5 9t9.5 22t-9 22zM884 293q37 22 42 55q5 32 -23 63q-48 53 -142 152q-23 135 -37 206q-8 39 -40 55q-30 16 -66 -1q-65 -31 -189 -92q-140 17 -211 24q-34 4 -58 -20q-25 -26 -21 -61
q7 -72 25 -212q-61 -128 -91 -195q-17 -37 -1 -67q15 -28 48 -35q70 -14 212 -38q100 -96 153 -145q25 -23 52 -23q5 0 9 1q32 5 51 40q36 63 104 190q120 67 183 103v0zM852 347q-66 -39 -189 -107q-8 -4 -13 -12q-72 -135 -107 -197q-4 -7 -7 -9q-3 1 -9 6
q-61 56 -159 151q-7 6 -16 8q-134 23 -219 39q-5 1 -6 3q-1 3 3 13q30 67 94 201q4 8 3 17q-18 138 -26 220q-1 6 4 11q2 2 5 2h1q79 -8 219 -25q10 -1 18 3q125 62 197 96q7 3 11 1q5 -2 6 -11q16 -79 39 -214q2 -9 8 -16q88 -92 148 -158q7 -8 7 -11q-1 -4 -12 -11z
M349 404q-9 9 -22 9t-22 -9t-9 -22t9 -22l22 -23q9 -9 22 -9t22.5 9t9.5 22t-9 22zM509 519q9 -9 22 -9t22 9t9 22t-9 22l-23 23q-9 9 -22 9t-22 -9t-9 -22t9 -22zM564.5 454.5q-12.5 -2.5 -19.5 -13.5t-4 -24q5 -24 -11 -41q-16 -16 -41 -11q-13 3 -23.5 -4t-13.5 -19.5
t3.5 -23.5t19.5 -14q10 -2 23 -2q46 0 76 30q21 21 26.5 49t1.5 50q-3 12 -14 19t-23.5 4.5z" />
    <glyph glyph-name="shangdian1" unicode="&#xe628;" 
d="M923 53h-35v288h-57v-288h-375v302h-37v-302h-215v288h-50v-288h-53q-15 0 -25.5 -10.5t-10.5 -25.5t10.5 -25.5t25.5 -10.5h822q15 0 25.5 10.5t10.5 25.5t-10.5 25.5t-25.5 10.5v0zM923 53zM497 211l12 -12l134 133l-14 11zM497 211zM786 243l-14 11l-133 -132l13 -13z
M786 243zM742 324l-13 13l-215 -215l13 -13zM742 324zM320 137q0 -13 9.5 -22.5t22.5 -9.5t22.5 9.5t9.5 22.5q0 15 -15 27v107q15 12 15 27q0 13 -9.5 22.5t-22.5 9.5t-22.5 -9.5t-9.5 -22.5q0 -15 13 -26v-109q-13 -11 -13 -26v0zM320 137zM152 380q27 0 46 18.5t20 49.5
h13q2 -31 20.5 -49.5t45.5 -18.5t45.5 18.5t20.5 49.5h12q2 -31 20.5 -49.5t45.5 -18.5t46 18.5t20 49.5h13q2 -31 20.5 -49.5t45.5 -18.5t45.5 18.5t20.5 49.5h12q2 -31 20.5 -49.5t45.5 -18.5t46 18.5t20 49.5h13q2 -31 20.5 -49.5t45.5 -18.5t45.5 18.5t20.5 49.5h-3v16
h-857v-16h5q2 -31 20.5 -49.5t45.5 -18.5v0zM152 380zM154 787h713v-35h-713v35v0zM154 787zM858 730h-692l-83 -245h858l-83 245v0zM229 499h-36l54 216h35l-53 -216v0zM372 499h-36l33 216h36l-33 -216v0zM528 499h-36v216h36v-216v0zM655 499l-33 216h35l34 -216h-36v0z
M798 499l-54 216h36l54 -216h-36v0zM798 499z" />
    <glyph glyph-name="zizhanghaoguanli" unicode="&#xe629;" 
d="M831 105q-7 117 -88.5 201t-197.5 96l1 27q71 10 119.5 65t49.5 128q0 82 -57 140t-138.5 58.5t-140 -56.5t-58.5 -139q-1 -73 46.5 -128.5t119.5 -67.5v-27q-116 -10 -198 -92t-92 -197q-26 -8 -42 -30t-16 -49q-1 -35 23.5 -59.5t59 -25t59.5 24t25 59.5q0 25 -14 46
t-37 31q9 92 74.5 157.5t156.5 75.5l-1 -119q-24 -9 -38.5 -30t-15.5 -48q0 -34 24.5 -59t59 -25t59 24.5t25.5 58.5q0 27 -15.5 48.5t-39.5 30.5l1 119q91 -11 155 -77t72 -157q-26 -8 -42 -30t-16 -49q-1 -35 23.5 -59.5t59 -25t59.5 24t25 58.5q0 26 -13.5 46.5
t-36.5 30.5zM222 8.5q-10 0.5 -17.5 7.5t-7.5 17.5t7.5 17.5t18 7t17.5 -7.5t7 -17.5t-7.5 -17.5t-17.5 -7zM379.5 625q0.5 57 41.5 97t98 39.5t97 -41t39.5 -98t-41 -97.5t-98 -39.5t-97.5 41.5t-39.5 98zM515 121q-10 0 -17.5 7.5t-7.5 17.5t7.5 17.5t18 7.5t17.5 -7.5
t7 -18t-7.5 -17.5t-17.5 -7zM797 4q-10 0 -17.5 7.5t-7.5 17.5t7.5 17.5t18 7.5t17.5 -7.5t7 -17.5t-7.5 -17.5t-17.5 -7.5z" />
    <glyph glyph-name="loading2" unicode="&#xeee3;" 
d="M960 449q-11 153 -120 261.5t-261 120.5q-16 1 -27.5 -9.5t-11.5 -26.5q0 -14 9.5 -24.5t23.5 -11.5q55 -4 107 -26q61 -26 109 -73.5t74 -109.5q22 -51 26 -106q1 -14 11.5 -23.5t24.5 -9.5q15 0 26 11q11 12 9 27z" />
    <glyph glyph-name="zhengxu-copy" unicode="&#xe632;" horiz-adv-x="1054" 
d="M1032 712h-533v-63h533v63zM622 363h410v64h-410v-64zM749 78h283v63h-283v-63zM283 -78l19 19l19 -22l270 273l-45 44l-206 -209v812h-64v-822l-215 219l-45 -44l267 -270v0z" />
    <glyph glyph-name="huidingbu" unicode="&#xe635;" horiz-adv-x="1071" 
d="M1038 128l-88 -98l-340 359v-517h-149v517l-340 -359l-88 98l488 521h28zM0 896h1071v-163h-1071v163z" />
    <glyph glyph-name="xiayi-copy" unicode="&#xe637;" 
d="M960 448l-448 -512l-448 512h256v384h384v-384h256z" />
    <glyph glyph-name="xiayi-copy-copy" unicode="&#xe638;" 
d="M64 320l448 512l448 -512h-256v-384h-384v384h-256z" />
    <glyph glyph-name="xiayi-copy-copy-copy" unicode="&#xe639;" 
d="M448 832l512 -448l-512 -448v256h-384v384h384v256z" />
    <glyph glyph-name="fahuo01" unicode="&#xe642;" horiz-adv-x="1035" 
d="M254 -62q-41 0 -73.5 25t-44.5 64l-1 7h-98q-11 0 -18.5 7.5t-7.5 18.5v592q0 56 39 96t95 40h335q56 0 96 -40t40 -96v-288h157q11 0 19 -8t8 -19.5t-8 -19.5t-19 -8h-157v-221h52l2 7q11 39 44 64t74 25t73.5 -25t44.5 -64l1 -7h62v247q0 97 -44 157q-46 60 -121 60
h-188v54h188q98 0 159 -75t61 -196v-275q0 -11 -8.5 -18.5t-20.5 -7.5h-88l-1 -7q-12 -39 -44.5 -64t-73.5 -25t-74 25t-44 64l-2 7h-294l-2 -7q-11 -39 -44 -64t-74 -25zM254 128q-28 0 -48 -20t-20 -48t20 -48t48 -20t48 20t20 48t-20 48t-48 20zM788 128q-28 0 -48 -20
t-20 -48t20 -48t48 -20t48 20t20 48t-20 48t-48 20zM254 184q41 0 74 -25t44 -64l2 -7h187v564q0 33 -23.5 57t-57.5 24h-335q-33 0 -56.5 -23.5t-23.5 -57.5v-564h70l1 7q12 39 44.5 64t73.5 25v0z" />
    <glyph glyph-name="huidingbu-copy" unicode="&#xe63a;" horiz-adv-x="1071" 
d="M29 640l88 98l340 -359v517h149v-517l340 359l88 -98l-489 -521h-28zM1067 -128h-1071v163h1071v-163z" />
    <glyph glyph-name="xiangqian-copy-copy" unicode="&#xe63c;" 
d="M540 89l1.5 1l1.5 1q11 6 13 8l0.5 0.5l1 1t1.5 1t1 1.5l434 450q17 18 17 42q0 27 -19 45q-18 18 -43.5 17.5t-43.5 -19.5l-391 -406l-385 408q-18 18 -43.5 19t-44 -16.5t-19.5 -43t17 -44.5l429 -454q14 -15 34 -18t38 6z" />
  </font>
</defs>
</svg>
